<svg width="310" height="100" viewBox="0 0 310 100" fill="none" xmlns="http://www.w3.org/2000/svg">
<path opacity="0.5" d="M49.9878 25.3378L37.7543 71.0417C37.6921 71.2492 37.4433 71.3114 37.2982 71.1662L29.108 62.9714L35.2454 40.0676C35.3076 39.8601 35.121 39.6734 34.9137 39.7357L12.0226 45.8765L3.8739 37.7233C3.72876 37.578 3.79096 37.3291 3.99831 37.2669L49.656 25.0058C49.8634 24.9643 50.05 25.1511 49.9878 25.3378Z" fill="#00B37E"/>
<path opacity="0.5" d="M29.1076 62.971L25.956 74.7964C25.8938 75.0038 25.6449 75.0661 25.4998 74.9208L0.0791022 49.5067C-0.0660404 49.3615 -0.00383678 49.1125 0.20351 49.0503L12.0223 45.8761L29.1076 62.971Z" fill="#00B37E"/>
<path d="M35.2446 40.0672L29.1071 62.971L12.0218 45.8761L34.9129 39.7352C35.1202 39.673 35.3068 39.8597 35.2446 40.0672Z" fill="#00B37E"/>
<path d="M77.3027 31.4531V67H70.1982V31.4531H77.3027ZM96.9561 40.584H103.157V67C103.157 69.4089 102.693 71.3783 101.766 72.9082C100.854 74.4544 99.5765 75.5856 97.9326 76.3018C96.305 77.0342 94.4007 77.4004 92.2197 77.4004C91.3896 77.4004 90.4538 77.2865 89.4121 77.0586C88.3867 76.8307 87.3939 76.4808 86.4336 76.0088C85.4733 75.5531 84.6839 74.9997 84.0654 74.3486L86.3848 69.6123C87.0195 70.2471 87.8496 70.7842 88.875 71.2236C89.9004 71.6794 90.9095 71.9072 91.9023 71.9072C92.8626 71.9072 93.6602 71.7526 94.2949 71.4434C94.946 71.1504 95.4342 70.6458 95.7598 69.9297C96.1016 69.2135 96.2725 68.2533 96.2725 67.0488V46.7119L96.9561 40.584ZM82.21 54.7197V52.9619C82.21 50.8135 82.4134 48.9336 82.8203 47.3223C83.2272 45.7109 83.8132 44.3682 84.5781 43.2939C85.3431 42.2197 86.279 41.4222 87.3857 40.9014C88.5088 40.3643 89.762 40.0957 91.1455 40.0957C92.5941 40.0957 93.8066 40.4131 94.7832 41.0479C95.7598 41.6663 96.5492 42.5371 97.1514 43.6602C97.7699 44.7832 98.2419 46.1097 98.5674 47.6396C98.9092 49.1696 99.1696 50.846 99.3486 52.6689V55.208C99.1696 56.9333 98.8766 58.5446 98.4697 60.042C98.0791 61.5394 97.5583 62.8415 96.9072 63.9482C96.2562 65.055 95.4587 65.9258 94.5146 66.5605C93.5706 67.179 92.4313 67.4883 91.0967 67.4883C89.7295 67.4883 88.4925 67.2116 87.3857 66.6582C86.2952 66.1048 85.3594 65.291 84.5781 64.2168C83.8132 63.1263 83.2272 61.7917 82.8203 60.2129C82.4134 58.6178 82.21 56.7868 82.21 54.7197ZM89.0703 52.9619V54.7197C89.0703 55.9567 89.1436 57.0228 89.29 57.918C89.4528 58.7969 89.6969 59.5212 90.0225 60.0908C90.348 60.6442 90.763 61.0592 91.2676 61.3359C91.7884 61.5964 92.3988 61.7266 93.0986 61.7266C94.0915 61.7266 94.8809 61.4987 95.4668 61.043C96.069 60.571 96.5085 59.9281 96.7852 59.1143C97.0781 58.2842 97.2409 57.332 97.2734 56.2578V51.6436C97.2572 50.7484 97.1514 49.9427 96.9561 49.2266C96.777 48.5104 96.5247 47.9001 96.1992 47.3955C95.8737 46.891 95.4505 46.5003 94.9297 46.2236C94.4251 45.9469 93.8311 45.8086 93.1475 45.8086C92.4476 45.8086 91.8454 45.9469 91.3408 46.2236C90.8363 46.5003 90.4131 46.9316 90.0713 47.5176C89.7458 48.0872 89.4935 48.8278 89.3145 49.7393C89.1517 50.6344 89.0703 51.7087 89.0703 52.9619ZM114.974 46.2236V67H108.113V40.584H114.534L114.974 46.2236ZM113.948 52.8887L112.117 52.9375C112.085 50.9518 112.272 49.1696 112.679 47.5908C113.102 46.012 113.696 44.6693 114.461 43.5625C115.242 42.4395 116.17 41.585 117.244 40.999C118.335 40.3968 119.547 40.0957 120.882 40.0957C121.907 40.0957 122.843 40.2747 123.689 40.6328C124.552 40.9909 125.293 41.5605 125.911 42.3418C126.53 43.123 127.01 44.1647 127.352 45.4668C127.693 46.7526 127.864 48.3314 127.864 50.2031V67H121.004V50.1543C121.004 49.015 120.89 48.1361 120.662 47.5176C120.434 46.8828 120.092 46.4434 119.637 46.1992C119.181 45.9388 118.611 45.8086 117.928 45.8086C117.277 45.8086 116.699 45.9958 116.194 46.3701C115.69 46.7282 115.267 47.2246 114.925 47.8594C114.599 48.4941 114.347 49.2428 114.168 50.1055C114.005 50.9681 113.932 51.8958 113.948 52.8887ZM140.047 40.584V67H133.187V40.584H140.047ZM132.869 33.748C132.869 32.6901 133.203 31.8193 133.87 31.1357C134.554 30.4359 135.465 30.0859 136.604 30.0859C137.76 30.0859 138.672 30.4359 139.339 31.1357C140.006 31.8193 140.34 32.6901 140.34 33.748C140.34 34.7897 139.998 35.6605 139.314 36.3604C138.647 37.0439 137.752 37.3857 136.629 37.3857C135.473 37.3857 134.554 37.0439 133.87 36.3604C133.203 35.6605 132.869 34.7897 132.869 33.748ZM156.99 40.584V45.7354H143.514V40.584H156.99ZM146.614 34.0654H153.426V58.9434C153.426 59.6758 153.499 60.2373 153.646 60.6279C153.792 61.0186 154.012 61.2952 154.305 61.458C154.614 61.6045 155.021 61.6777 155.525 61.6777C155.867 61.6777 156.185 61.6615 156.478 61.6289C156.771 61.5801 156.99 61.5312 157.137 61.4824V66.8291C156.6 67.0407 156.03 67.2035 155.428 67.3174C154.842 67.4313 154.142 67.4883 153.328 67.4883C151.961 67.4883 150.773 67.2279 149.764 66.707C148.771 66.1862 147.998 65.3561 147.444 64.2168C146.891 63.0612 146.614 61.5475 146.614 59.6758V34.0654ZM171.443 67.4883C169.637 67.4883 168.034 67.2116 166.634 66.6582C165.25 66.1048 164.078 65.3073 163.118 64.2656C162.158 63.2077 161.425 61.93 160.921 60.4326C160.416 58.9352 160.164 57.2262 160.164 55.3057V53.1328C160.164 50.9844 160.408 49.1045 160.896 47.4932C161.385 45.8656 162.076 44.4984 162.972 43.3916C163.867 42.2848 164.965 41.4629 166.268 40.9258C167.586 40.3724 169.075 40.0957 170.735 40.0957C172.396 40.0957 173.852 40.3724 175.105 40.9258C176.375 41.4629 177.425 42.2767 178.255 43.3672C179.085 44.4414 179.712 45.776 180.135 47.3711C180.558 48.9661 180.77 50.8216 180.77 52.9375V56.0625H163.069V51.2529H174.056V50.6426C174.056 49.5684 173.942 48.6732 173.714 47.957C173.486 47.2246 173.128 46.6794 172.64 46.3213C172.151 45.9632 171.5 45.7842 170.687 45.7842C170.003 45.7842 169.425 45.9225 168.953 46.1992C168.481 46.4759 168.107 46.9072 167.83 47.4932C167.553 48.0791 167.35 48.8441 167.22 49.7881C167.09 50.7158 167.024 51.8307 167.024 53.1328V55.3057C167.024 56.5264 167.13 57.5518 167.342 58.3818C167.553 59.1956 167.863 59.863 168.27 60.3838C168.693 60.8883 169.205 61.2546 169.808 61.4824C170.41 61.694 171.11 61.7998 171.907 61.7998C173.112 61.7998 174.194 61.5882 175.154 61.165C176.131 60.7256 176.961 60.1315 177.645 59.3828L180.379 63.5332C179.907 64.1517 179.256 64.7702 178.426 65.3887C177.596 66.0072 176.603 66.5117 175.447 66.9023C174.292 67.293 172.957 67.4883 171.443 67.4883ZM209.285 31.4531V67H202.181V31.4531H209.285ZM218.123 31.4531V37.3857H193.514V31.4531H218.123ZM229.109 40.584V67H222.249V40.584H229.109ZM221.932 33.748C221.932 32.6901 222.265 31.8193 222.933 31.1357C223.616 30.4359 224.528 30.0859 225.667 30.0859C226.823 30.0859 227.734 30.4359 228.401 31.1357C229.069 31.8193 229.402 32.6901 229.402 33.748C229.402 34.7897 229.061 35.6605 228.377 36.3604C227.71 37.0439 226.814 37.3857 225.691 37.3857C224.536 37.3857 223.616 37.0439 222.933 36.3604C222.265 35.6605 221.932 34.7897 221.932 33.748ZM241.414 46.0527V67H234.554V40.584H240.999L241.414 46.0527ZM240.438 52.8887L238.558 52.9375C238.525 51.082 238.688 49.373 239.046 47.8105C239.404 46.248 239.941 44.889 240.657 43.7334C241.39 42.5778 242.309 41.6826 243.416 41.0479C244.523 40.4131 245.817 40.0957 247.298 40.0957C248.258 40.0957 249.145 40.2747 249.959 40.6328C250.773 40.9746 251.481 41.5199 252.083 42.2686C252.685 43.001 253.149 43.9613 253.475 45.1494C253.8 46.3213 253.963 47.7292 253.963 49.373V67H247.127V50.2031C247.127 49.0312 247.013 48.1361 246.785 47.5176C246.557 46.8828 246.232 46.4434 245.809 46.1992C245.385 45.9388 244.865 45.8086 244.246 45.8086C243.595 45.8086 243.025 45.9876 242.537 46.3457C242.049 46.7038 241.65 47.2083 241.341 47.8594C241.048 48.4941 240.82 49.2428 240.657 50.1055C240.511 50.9681 240.438 51.8958 240.438 52.8887ZM253.304 52.2051L250.838 52.5225C250.805 50.7809 250.96 49.1615 251.302 47.6641C251.644 46.1504 252.173 44.832 252.889 43.709C253.605 42.5697 254.5 41.6826 255.574 41.0479C256.665 40.4131 257.926 40.0957 259.358 40.0957C260.433 40.0957 261.409 40.2747 262.288 40.6328C263.167 40.9909 263.916 41.5687 264.534 42.3662C265.169 43.1475 265.649 44.181 265.975 45.4668C266.316 46.7526 266.487 48.3151 266.487 50.1543V67H259.627V50.1787C259.627 48.9906 259.513 48.0791 259.285 47.4443C259.057 46.8096 258.732 46.3783 258.309 46.1504C257.885 45.9225 257.381 45.8086 256.795 45.8086C256.209 45.8086 255.696 45.9714 255.257 46.2969C254.834 46.6224 254.476 47.0781 254.183 47.6641C253.89 48.2337 253.67 48.9092 253.523 49.6904C253.377 50.4554 253.304 51.2936 253.304 52.2051ZM282.283 67.4883C280.477 67.4883 278.873 67.2116 277.474 66.6582C276.09 66.1048 274.918 65.3073 273.958 64.2656C272.998 63.2077 272.265 61.93 271.761 60.4326C271.256 58.9352 271.004 57.2262 271.004 55.3057V53.1328C271.004 50.9844 271.248 49.1045 271.736 47.4932C272.225 45.8656 272.916 44.4984 273.812 43.3916C274.707 42.2848 275.805 41.4629 277.107 40.9258C278.426 40.3724 279.915 40.0957 281.575 40.0957C283.235 40.0957 284.692 40.3724 285.945 40.9258C287.215 41.4629 288.265 42.2767 289.095 43.3672C289.925 44.4414 290.551 45.776 290.975 47.3711C291.398 48.9661 291.609 50.8216 291.609 52.9375V56.0625H273.909V51.2529H284.896V50.6426C284.896 49.5684 284.782 48.6732 284.554 47.957C284.326 47.2246 283.968 46.6794 283.479 46.3213C282.991 45.9632 282.34 45.7842 281.526 45.7842C280.843 45.7842 280.265 45.9225 279.793 46.1992C279.321 46.4759 278.947 46.9072 278.67 47.4932C278.393 48.0791 278.19 48.8441 278.06 49.7881C277.929 50.7158 277.864 51.8307 277.864 53.1328V55.3057C277.864 56.5264 277.97 57.5518 278.182 58.3818C278.393 59.1956 278.702 59.863 279.109 60.3838C279.533 60.8883 280.045 61.2546 280.647 61.4824C281.25 61.694 281.95 61.7998 282.747 61.7998C283.951 61.7998 285.034 61.5882 285.994 61.165C286.971 60.7256 287.801 60.1315 288.484 59.3828L291.219 63.5332C290.747 64.1517 290.096 64.7702 289.266 65.3887C288.436 66.0072 287.443 66.5117 286.287 66.9023C285.132 67.293 283.797 67.4883 282.283 67.4883ZM302.4 46.4678V67H295.564V40.584H302.01L302.4 46.4678ZM308.626 40.3887L308.528 47.2002C308.219 47.1351 307.845 47.0863 307.405 47.0537C306.982 47.0212 306.608 47.0049 306.282 47.0049C305.517 47.0049 304.866 47.127 304.329 47.3711C303.792 47.599 303.344 47.9489 302.986 48.4209C302.645 48.8766 302.384 49.4463 302.205 50.1299C302.026 50.8135 301.92 51.5866 301.888 52.4492L300.594 51.9609C300.594 50.2357 300.724 48.6569 300.984 47.2246C301.261 45.776 301.668 44.5228 302.205 43.4648C302.742 42.3906 303.385 41.5605 304.134 40.9746C304.899 40.3887 305.761 40.0957 306.722 40.0957C307.047 40.0957 307.389 40.1283 307.747 40.1934C308.121 40.2422 308.414 40.3073 308.626 40.3887Z" fill="white"/>
</svg>
